<svg version="1.2" xmlns="http://www.w3.org/2000/svg" viewBox="0 0 1000 421" width="1000" height="421">
	<title>Layer 1</title>
	<style>
		.s0 { fill: #1d3c51 } 
		.s1 { fill: #c69a2c } 
		.s2 { fill: #ffffff } 
	</style>
	<g id="Layer 1">
		<path id="&lt;Path&gt;" class="s0" d="m1017.2 460.4l-1020.3-0.4v-466.3h1026.3z"/>
		<g id="&lt;Group&gt;">
			<g id="&lt;Group&gt;">
				<g id="&lt;Group&gt;">
					<g id="&lt;Group&gt;">
						<path id="&lt;Path&gt;" class="s1" d="m557.5 103.6h-49.7c-5.8 0.1-11.6-1.8-15.7-6-5.2-5.4-8.2-12.6-8.1-20.2 0-15 0.1-39.2 0.1-39.2 0-6.6-5.4-11.9-12-11.9h-46c-6.6 0-12 5.3-12 11.9v49.1c0 6.6 5.4 12 12 12h0.6c0 0 24.2-0.1 39.2-0.1 5.3 0 10.3 1.4 14.8 4v0.1c1.9 1.1 3.8 2.5 5.4 4 4.2 4.2 6 9.9 5.9 15.8v16.8c0.1 4.5 0.1 9 0 13.5q0 11.9-0.1 23.7c0 8.9 7.2 16.1 16 16.1h49.6c8.8 0 16-7.2 16-16.1v-57.4c0-8.9-7.2-16.1-16-16.1z"/>
					</g>
				</g>
				<path id="&lt;Path&gt;" class="s2" d="m571.3 75.7c0 2.5-2 4.5-4.5 4.5h-54.9c-2.5 0-4.5-2-4.5-4.5v-54.9c0-2.5 2-4.5 4.5-4.5h54.9c2.5 0 4.5 2 4.5 4.5z"/>
			</g>
			<g id="&lt;Group&gt;">
				<g id="&lt;Group&gt;">
					<path id="&lt;Compound Path&gt;" class="s1" d="m115.5 325.2h-67.7q-2.6 0-5.6-0.6-3-0.6-5.9-1.9-2.9-1.3-5.6-3.4-2.7-2-4.7-4.9-2.1-3-3.3-6.8-1.2-3.9-1.2-8.8v-50.8q0-2.6 0.6-5.6 0.6-3 1.9-6 1.3-2.9 3.4-5.6 2.1-2.6 5-4.7 2.9-2 6.7-3.3 3.9-1.2 8.7-1.2h67.7v18.8h-67.7q-3.7 0-5.6 1.9-2 2-2 5.8v50.7q0 3.7 2 5.7 2 1.9 5.6 1.9h67.7z"/>
					<path id="&lt;Compound Path&gt;" class="s1" d="m199.1 265.9h-42.3q-3.8 0-5.8 1.9-1.9 1.9-1.9 5.6v51.8h-18.8v-51.8q0-4.8 1.3-8.7 1.2-3.8 3.2-6.7 2.1-2.9 4.8-5 2.6-2.1 5.6-3.4 2.9-1.3 5.9-1.9 3-0.6 5.6-0.6h42.4z"/>
					<path id="&lt;Compound Path&gt;" fill-rule="evenodd" class="s1" d="m296 298.8q0 4.9-1.2 8.8-1.2 3.8-3.3 6.8-2 2.9-4.7 4.9-2.6 2.1-5.6 3.4-2.9 1.3-5.9 1.9-3 0.6-5.6 0.6h-33.9q-3.9 0-8.5-1.3-4.6-1.4-8.6-4.6-3.9-3.1-6.5-8.1-2.7-5.1-2.7-12.4v-25.4q0-7.2 2.7-12.2 2.6-5.1 6.5-8.2 4-3.1 8.6-4.5 4.6-1.4 8.5-1.4h33.9q7.2 0 12.2 2.6 5.1 2.6 8.2 6.5 3.1 4 4.5 8.6 1.4 4.6 1.4 8.6zm-18.8-25.3q0-3.9-1.9-5.8-2-1.8-5.6-1.8h-33.8q-3.7 0-5.7 1.9-1.9 1.9-1.9 5.6v25.4q0 3.7 1.9 5.7 2 1.9 5.7 1.9h33.8q3.8 0 5.7-1.9 1.8-2 1.8-5.7z"/>
					<path id="&lt;Compound Path&gt;" class="s1" d="m387.4 298.8q0 4.9-1.2 8.8-1.3 3.8-3.3 6.8-2 2.9-4.7 4.9-2.6 2.1-5.6 3.4-2.9 1.3-5.9 1.9-3 0.6-5.7 0.6h-50.8v-18.8h50.7q3.8 0 5.8-1.9 1.9-2 1.9-5.7-0.3-7.5-7.6-7.5h-29q-6.3 0-10.6-2.1-4.3-2.2-7-5.5-2.7-3.2-3.9-7-1.2-3.7-1.2-7 0-6.3 2.2-10.6 2.3-4.3 5.7-6.9 3.4-2.7 7.3-3.9 4-1.2 7.5-1.2h46.1v18.8h-46q-1.4 0-2.3 0.3-0.8 0.3-1.2 0.9-0.4 0.5-0.5 1.1 0 0.7 0 1.2 0 1.2 0.4 1.8 0.4 0.7 0.9 1 0.5 0.3 1.2 0.3 0.7 0 1.4 0h29q7.3 0 12.3 2.6 5.1 2.6 8.2 6.6 3.1 3.9 4.5 8.5 1.4 4.7 1.4 8.6z"/>
					<path id="&lt;Compound Path&gt;" class="s1" d="m476 298.8q0 4.9-1.2 8.8-1.3 3.8-3.3 6.8-2 2.9-4.7 4.9-2.7 2.1-5.6 3.4-2.9 1.3-5.9 1.9-3 0.6-5.7 0.6h-50.8v-18.8h50.7q3.8 0 5.8-1.9 1.9-2 1.9-5.7-0.3-7.5-7.6-7.5h-29.1q-6.2 0-10.5-2.1-4.3-2.2-7-5.5-2.7-3.2-3.9-7-1.2-3.7-1.2-7 0-6.3 2.2-10.6 2.2-4.3 5.6-6.9 3.4-2.7 7.4-3.9 4-1.2 7.4-1.2h46.2v18.8h-46q-1.5 0-2.3 0.3-0.8 0.3-1.2 0.9-0.4 0.5-0.5 1.1-0.1 0.7-0.1 1.2 0.1 1.2 0.5 1.8 0.3 0.7 0.9 1 0.5 0.3 1.2 0.3 0.7 0 1.3 0h29.1q7.3 0 12.3 2.6 5.1 2.6 8.2 6.6 3.1 3.9 4.5 8.5 1.4 4.7 1.4 8.6z"/>
					<path id="&lt;Compound Path&gt;" class="s1" d="m611.7 325.2h-18.9v-61.7l-33.3 58.6q-1.2 2.3-3.4 3.4-2.2 1.2-4.7 1.2-2.5 0-4.6-1.2-2.2-1.1-3.4-3.4l-33.4-58.6v61.7h-18.8v-95.6q0-3.2 1.9-5.8 1.9-2.5 5-3.4 1.6-0.3 3.1-0.2 1.5 0.1 2.9 0.6 1.4 0.6 2.6 1.6 1.1 0.9 1.9 2.3l42.8 74.4 42.7-74.4q1.7-2.7 4.6-3.9 2.9-1.2 6.1-0.4 3 0.9 5 3.4 1.9 2.6 1.9 5.8z"/>
					<path id="&lt;Compound Path&gt;" fill-rule="evenodd" class="s1" d="m715.8 298.8q0 4.9-1.2 8.8-1.2 3.8-3.3 6.8-2 2.9-4.7 4.9-2.6 2.1-5.6 3.4-2.9 1.3-5.9 1.9-3 0.6-5.6 0.6h-33.9q-3.9 0-8.5-1.3-4.6-1.4-8.6-4.6-3.9-3.1-6.5-8.1-2.7-5.1-2.7-12.4v-25.4q0-7.2 2.7-12.2 2.6-5.1 6.5-8.2 4-3.1 8.6-4.5 4.6-1.4 8.5-1.4h33.9q7.2 0 12.2 2.6 5.1 2.6 8.2 6.5 3.1 4 4.5 8.6 1.4 4.6 1.4 8.6zm-18.8-25.3q0-3.9-1.9-5.8-2-1.8-5.6-1.8h-33.8q-3.7 0-5.7 1.9-1.9 1.9-1.9 5.6v25.4q0 3.7 1.9 5.7 2 1.9 5.7 1.9h33.8q3.8 0 5.7-1.9 1.8-2 1.8-5.7z"/>
					<path id="&lt;Compound Path&gt;" class="s1" d="m817.4 298.8q0 4.9-1.2 8.8-1.3 3.8-3.3 6.8-2 2.9-4.7 4.9-2.7 2.1-5.6 3.4-2.9 1.3-5.9 1.9-3 0.6-5.7 0.6h-33.8q-4.9 0-8.7-1.2-3.8-1.2-6.7-3.3-3-2-5-4.7-2.1-2.7-3.4-5.6-1.3-3-1.9-5.9-0.6-3-0.6-5.7v-25.4q0-7.2 2.6-12.2 2.7-5.1 6.6-8.2 3.9-3.1 8.6-4.5 4.6-1.4 8.5-1.4h33.8v18.8h-33.7q-3.7 0-5.7 1.9-1.9 1.9-1.9 5.6v25.3q0 3.8 1.9 5.8 1.9 1.9 5.6 1.9h33.8q3.9 0 5.7-1.9 1.9-2 1.9-5.7v-84.7h18.8z"/>
					<path id="&lt;Compound Path&gt;" class="s1" d="m919.3 273q0 3.9-1.4 8.4-1.4 4.5-4.5 8.4-3 3.8-8 6.4-4.9 2.6-12 2.6h-33.9v-17.8h33.9q3.8 0 5.9-2.4 2.1-2.3 2.1-5.8 0-3.7-2.3-5.7-2.4-2.1-5.7-2.1h-33.9q-3.8 0-5.9 2.3-2.1 2.4-2.1 5.8v26.3q0 3.7 2.4 5.8 2.3 2.1 5.8 2.1h33.7v17.9h-33.9q-3.9 0-8.4-1.3-4.5-1.4-8.3-4.5-3.9-3.1-6.5-8-2.6-5-2.6-12v-26.4q0-3.9 1.4-8.4 1.3-4.6 4.4-8.4 3.1-3.9 8-6.5 5-2.6 12-2.6h33.9q3.9 0 8.4 1.4 4.5 1.4 8.4 4.4 3.9 3.1 6.5 8 2.5 5 2.6 12.1z"/>
					<path id="&lt;Compound Path&gt;" class="s1" d="m966.2 325.2h-8.4q-4 0-8.6-1.3-4.6-1.4-8.6-4.6-4-3.1-6.6-8.1-2.6-5.1-2.6-12.4v-84.7h18.8v84.7q0 3.5 2.2 5.6 2.1 2 5.4 2h8.4z"/>
				</g>
				<g id="&lt;Group&gt;">
					<g id="&lt;Group&gt;">
						<g id="&lt;Group&gt;">
							<g id="&lt;Group&gt;">
								<path id="&lt;Compound Path&gt;" class="s2" d="m68 371q3.2 3.4 3.2 9.5v17.5h-3.4v-17.2q0-4.8-2.3-7.4-2.2-2.6-6.4-2.6-2.7 0-4.9 1.3-2.2 1.4-3.5 3.7-1.2 2.4-1.2 5.4v16.8h-3.5v-17.2q0-4.8-2.2-7.4-2.3-2.6-6.5-2.6-2.7 0-4.9 1.3-2.2 1.4-3.4 3.7-1.2 2.4-1.2 5.4v16.8h-3.4v-30h3.1l0.1 5.1q1.6-2.7 4.2-4.1 2.5-1.4 5.7-1.4 3.9 0 6.6 1.8 2.8 1.8 4 5 1.6-3.2 4.5-5 3-1.8 6.5-1.8 5.7 0 8.9 3.4z"/>
								<path id="&lt;Compound Path&gt;" fill-rule="evenodd" class="s2" d="m92.2 396.6q-3.5-2-5.5-5.6-2-3.5-2-8 0-4.4 2-8 2-3.6 5.5-5.6 3.5-2 8-2 4.5 0 8 2 3.5 2.1 5.5 5.6 2 3.6 2 8 0 4.5-2 8-2 3.6-5.5 5.6-3.5 2-8 2-4.5 0-8-2zm14.2-2.9q2.7-1.6 4.3-4.4 1.5-2.8 1.5-6.3 0-3.4-1.5-6.3-1.6-2.8-4.3-4.4-2.8-1.6-6.2-1.6-3.5 0-6.2 1.6-2.8 1.6-4.3 4.4-1.5 2.9-1.5 6.3 0 3.5 1.5 6.3 1.5 2.8 4.3 4.4 2.7 1.7 6.2 1.7 3.4 0 6.2-1.7z"/>
								<path id="&lt;Compound Path&gt;" fill-rule="evenodd" class="s2" d="m158.2 355.5v42.5h-3.2v-5.9q-1.7 3-5 4.7-3.3 1.8-7.5 1.8-4.3 0-7.7-2-3.4-2-5.3-5.5-1.9-3.5-1.9-8.1 0-4.5 1.9-8.1 1.9-3.5 5.3-5.5 3.4-1.9 7.7-1.9 4 0 7.2 1.6 3.3 1.6 5.1 4.6v-18.2zm-9.2 38.3q2.7-1.5 4.2-4.3 1.5-2.8 1.5-6.5 0-3.6-1.5-6.4-1.5-2.8-4.2-4.4-2.7-1.5-6.2-1.5-3.4 0-6.1 1.5-2.7 1.6-4.2 4.4-1.5 2.8-1.5 6.4 0 3.7 1.5 6.5 1.5 2.8 4.2 4.3 2.7 1.6 6.1 1.6 3.5 0 6.2-1.6z"/>
								<path id="&lt;Compound Path&gt;" fill-rule="evenodd" class="s2" d="m195.4 369.3q3.4 1.9 5.2 5.3 1.9 3.4 1.9 7.9 0 1.2-0.1 1.9h-26.7q0.4 5.1 3.6 8 3.2 3 8.3 3 3.2 0 6.1-1.2 2.9-1.2 4.4-3.2l2.4 2q-2.1 2.7-5.6 4.2-3.4 1.5-7.3 1.5-4.5 0-8-2-3.5-2-5.5-5.6-1.9-3.5-1.9-8.1 0-4.5 1.9-8 1.9-3.6 5.4-5.6 3.4-1.9 7.8-1.9 4.6 0 8.1 1.8zm-16.1 4.2q-3.1 2.9-3.6 7.8h23.4q-0.1-4.8-3.3-7.7-3.2-3-8.4-3-4.9 0-8.1 2.9z"/>
								<path id="&lt;Compound Path&gt;" class="s2" d="m219.4 355.5v42.5h-3.4v-42.5z"/>
								<path id="&lt;Compound Path&gt;" fill-rule="evenodd" class="s2" d="m669.4 368v30h-3.2v-5.9q-1.8 3-5.1 4.7-3.3 1.8-7.4 1.8-4.3 0-7.7-2-3.4-2-5.4-5.5-1.9-3.6-1.9-8.1 0-4.5 1.9-8 2-3.6 5.4-5.6 3.4-1.9 7.7-1.9 4.2 0 7.4 1.7 3.3 1.8 5.1 4.8v-6zm-9.2 25.8q2.7-1.5 4.2-4.3 1.5-2.8 1.5-6.5 0-3.6-1.5-6.4-1.5-2.8-4.2-4.4-2.7-1.5-6.2-1.5-3.4 0-6.1 1.5-2.7 1.6-4.2 4.4-1.5 2.8-1.5 6.4 0 3.7 1.5 6.5 1.5 2.8 4.2 4.3 2.7 1.6 6.1 1.6 3.5 0 6.2-1.6z"/>
								<path id="&lt;Compound Path&gt;" class="s2" d="m712 368v30h-3.2l-0.1-5.4q-1.7 2.8-4.7 4.3-2.9 1.6-6.5 1.6-5.8 0-9.2-3.6-3.4-3.6-3.4-9.8v-17.1h3.5v17q0 4.9 2.5 7.6 2.4 2.6 6.9 2.6 3.1 0 5.6-1.4 2.4-1.4 3.8-3.8 1.3-2.5 1.3-5.5v-16.5z"/>
								<path id="&lt;Compound Path&gt;" class="s2" d="m746.2 397q-3.3 1.6-6.2 1.6-4.5 0-6.6-2.5-2-2.4-2-7.4v-17.6h-6.3v-3.1h6.3v-8.6l3.4-0.4v9h10.1v3.1h-10.1v17.6q0 3.3 1.2 5 1.1 1.7 4.2 1.7 1 0 2.4-0.3 1.3-0.4 2.4-1z"/>
								<path id="&lt;Compound Path&gt;" fill-rule="evenodd" class="s2" d="m763.4 396.6q-3.5-2-5.5-5.6-1.9-3.5-1.9-8 0-4.4 1.9-8 2-3.6 5.5-5.6 3.6-2 8.1-2 4.4 0 8 2 3.5 2.1 5.5 5.6 1.9 3.6 1.9 8 0 4.5-1.9 8-2 3.6-5.5 5.6-3.6 2-8 2-4.5 0-8.1-2zm14.2-2.9q2.8-1.6 4.3-4.4 1.6-2.8 1.6-6.3 0-3.4-1.6-6.3-1.5-2.8-4.3-4.4-2.7-1.6-6.1-1.6-3.5 0-6.3 1.6-2.7 1.6-4.3 4.4-1.5 2.9-1.5 6.3 0 3.5 1.5 6.3 1.6 2.8 4.3 4.4 2.8 1.7 6.3 1.7 3.4 0 6.1-1.7z"/>
								<path id="&lt;Compound Path&gt;" class="s2" d="m844.5 371q3.2 3.4 3.2 9.5v17.5h-3.4v-17.2q0-4.8-2.3-7.4-2.2-2.6-6.4-2.6-2.8 0-4.9 1.3-2.2 1.4-3.5 3.7-1.2 2.4-1.2 5.4v16.8h-3.5v-17.2q0-4.8-2.2-7.4-2.3-2.6-6.5-2.6-2.7 0-4.9 1.3-2.2 1.4-3.4 3.7-1.2 2.4-1.2 5.4v16.8h-3.5v-30h3.2l0.1 5.1q1.6-2.7 4.2-4.1 2.5-1.4 5.7-1.4 3.8 0 6.6 1.8 2.8 1.8 4 5 1.6-3.2 4.5-5 2.9-1.8 6.5-1.8 5.7 0 8.9 3.4z"/>
								<path id="&lt;Compound Path&gt;" fill-rule="evenodd" class="s2" d="m891.9 368v30h-3.3v-5.9q-1.7 3-5 4.7-3.3 1.8-7.4 1.8-4.4 0-7.8-2-3.4-2-5.3-5.5-1.9-3.6-1.9-8.1 0-4.5 1.9-8 1.9-3.6 5.3-5.6 3.4-1.9 7.8-1.9 4.1 0 7.4 1.7 3.3 1.8 5 4.8v-6zm-9.2 25.8q2.7-1.5 4.3-4.3 1.5-2.8 1.5-6.5 0-3.6-1.5-6.4-1.6-2.8-4.3-4.4-2.7-1.5-6.1-1.5-3.5 0-6.2 1.5-2.6 1.6-4.1 4.4-1.6 2.8-1.6 6.4 0 3.7 1.6 6.5 1.5 2.8 4.1 4.3 2.7 1.6 6.2 1.6 3.4 0 6.1-1.6z"/>
								<path id="&lt;Compound Path&gt;" class="s2" d="m926.1 397q-3.3 1.6-6.2 1.6-4.5 0-6.6-2.5-2-2.4-2-7.4v-17.6h-6.3v-3.1h6.3v-8.6l3.4-0.4v9h10.1v3.1h-10.1v17.6q0 3.3 1.2 5 1.1 1.7 4.2 1.7 1 0 2.4-0.3 1.3-0.4 2.4-1z"/>
								<path id="&lt;Compound Path&gt;" fill-rule="evenodd" class="s2" d="m959 369.3q3.5 1.9 5.3 5.3 1.9 3.4 1.9 7.9 0 1.2-0.1 1.9h-26.7q0.4 5.1 3.6 8 3.2 3 8.3 3 3.2 0 6.1-1.2 2.9-1.2 4.4-3.2l2.4 2q-2.2 2.7-5.6 4.2-3.4 1.5-7.4 1.5-4.5 0-7.9-2-3.5-2-5.5-5.6-1.9-3.5-1.9-8.1 0-4.5 1.9-8 1.9-3.6 5.3-5.6 3.5-1.9 7.9-1.9 4.6 0 8 1.8zm-16 4.2q-3.1 2.9-3.6 7.8h23.4q-0.1-4.8-3.3-7.7-3.2-3-8.4-3-5 0-8.1 2.9z"/>
							</g>
						</g>
						<path id="&lt;Compound Path&gt;" class="s2" d="m263.6 347.1v59.4h-3.4v-59.4z"/>
						<path id="&lt;Compound Path&gt;" class="s2" d="m599.6 347.1v59.4h-3.5v-59.4z"/>
					</g>
					<path id="&lt;Compound Path&gt;" fill-rule="evenodd" class="s2" d="m332.9 368.1v29.9h-3.2v-5.9q-1.8 2.9-5.1 4.7-3.3 1.7-7.3 1.7-4.4 0-7.7-1.9-3.4-2-5.3-5.5-1.9-3.6-1.9-8.1 0-4.4 1.9-8 1.9-3.5 5.3-5.5 3.3-1.9 7.7-1.9 4.1 0 7.4 1.7 3.2 1.8 5 4.8v-6zm-9.2 25.7q2.7-1.6 4.2-4.3 1.5-2.8 1.5-6.5 0-3.6-1.5-6.4-1.5-2.8-4.2-4.3-2.7-1.5-6.1-1.5-3.5 0-6.1 1.5-2.7 1.5-4.2 4.3-1.5 2.8-1.5 6.4 0 3.7 1.5 6.5 1.5 2.7 4.2 4.3 2.6 1.5 6.1 1.5 3.4 0 6.1-1.5z"/>
					<path id="&lt;Compound Path&gt;" class="s2" d="m372.7 371.2q3.3 3.5 3.3 9.7v17.1h-3.4v-16.9q0-5-2.5-7.6-2.5-2.6-7.1-2.6-3.1 0-5.6 1.4-2.5 1.4-3.8 3.8-1.4 2.5-1.4 5.5v16.4h-3.4v-29.9h3.1l0.1 5.4q1.7-2.7 4.8-4.3 3-1.5 6.6-1.5 5.9 0 9.3 3.5z"/>
					<path id="&lt;Compound Path&gt;" fill-rule="evenodd" class="s2" d="m420.1 368.1v29.9h-3.3v-5.9q-1.7 2.9-5 4.7-3.3 1.7-7.3 1.7-4.4 0-7.8-1.9-3.4-2-5.3-5.5-1.9-3.6-1.9-8.1 0-4.4 1.9-8 1.9-3.5 5.3-5.5 3.4-1.9 7.8-1.9 4.1 0 7.3 1.7 3.3 1.8 5 4.8v-6zm-9.1 25.7q2.7-1.6 4.2-4.3 1.5-2.8 1.5-6.5 0-3.6-1.5-6.4-1.5-2.8-4.2-4.3-2.7-1.5-6.1-1.5-3.5 0-6.2 1.5-2.6 1.5-4.1 4.3-1.5 2.8-1.5 6.4 0 3.7 1.5 6.5 1.5 2.7 4.1 4.3 2.7 1.5 6.2 1.5 3.4 0 6.1-1.5z"/>
					<path id="&lt;Compound Path&gt;" class="s2" d="m439.4 355.6v42.4h-3.5v-42.4z"/>
					<path id="&lt;Compound Path&gt;" class="s2" d="m477.7 368.1h3.8l-19.3 44.3h-3.8l6.4-14.6-12.4-29.7h3.8l6.8 16.6 3.7 9.1 3.9-9.1z"/>
					<path id="&lt;Compound Path&gt;" class="s2" d="m496.8 397.2q-3.4-1.4-5.7-3.7l1.9-2.5q1.9 2 4.9 3.2 3 1.2 6.3 1.2 4.1 0 6.5-1.5 2.4-1.5 2.4-4 0-1.6-0.8-2.6-0.9-1-2.9-1.7-2-0.7-5.6-1.4-6.4-1-9-2.9-2.7-1.9-2.7-5.5 0-3.7 3.3-6 3.3-2.2 9-2.2 3.5 0 6.3 0.9 2.7 0.9 5.2 2.9l-1.8 2.4q-2.1-1.6-4.4-2.4-2.3-0.8-5.2-0.8-4.4 0-6.7 1.4-2.3 1.4-2.3 3.8 0 1.5 0.8 2.5 0.8 0.9 2.6 1.6 1.9 0.6 5.3 1.2 6.8 1.2 9.5 3.2 2.8 2 2.8 5.6 0 3.9-3.4 6.3-3.4 2.3-8.9 2.3-3.9 0-7.4-1.3z"/>
					<path id="&lt;Compound Path&gt;" fill-rule="evenodd" class="s2" d="m551.1 369.4q3.4 1.8 5.2 5.2 1.9 3.4 1.9 7.9 0 1.3-0.1 1.9h-26.6q0.4 5.1 3.6 8 3.2 3 8.3 3 3.1 0 6-1.2 2.9-1.2 4.4-3.2l2.4 2q-2.1 2.7-5.6 4.2-3.4 1.5-7.3 1.5-4.5 0-8-2-3.4-2-5.4-5.6-1.9-3.5-1.9-8.1 0-4.4 1.9-8 1.9-3.5 5.3-5.5 3.4-1.9 7.9-1.9 4.5 0 8 1.8zm-16 4.2q-3.1 2.9-3.6 7.8h23.3q-0.1-4.8-3.3-7.8-3.2-2.9-8.4-2.9-4.9 0-8 2.9z"/>
				</g>
			</g>
		</g>
	</g>
</svg>